<?xml version="1.0" encoding="UTF-8" standalone="no"?>
<svg
   xmlns:dc="http://purl.org/dc/elements/1.1/"
   xmlns:cc="http://creativecommons.org/ns#"
   xmlns:rdf="http://www.w3.org/1999/02/22-rdf-syntax-ns#"
   xmlns:svg="http://www.w3.org/2000/svg"
   xmlns="http://www.w3.org/2000/svg"
   viewBox="0 0 66.666664 66.666664"
   height="66.666664"
   width="66.666664"
   xml:space="preserve"
   id="svg2"
   version="1.1"><metadata
     id="metadata8"><rdf:RDF><cc:Work
         rdf:about=""><dc:format>image/svg+xml</dc:format><dc:type
           rdf:resource="http://purl.org/dc/dcmitype/StillImage" /></cc:Work></rdf:RDF></metadata><defs
     id="defs6"><clipPath
       id="clipPath18"
       clipPathUnits="userSpaceOnUse"><path
         id="path16"
         d="M 0,50 H 50 V 0 H 0 Z" /></clipPath></defs><g
     transform="matrix(1.3333333,0,0,-1.3333333,0,66.666667)"
     id="g10"><g
       id="g12"><g
         clip-path="url(#clipPath18)"
         id="g14"><g
           transform="translate(15.4341,19.1865)"
           id="g20"><path
             id="path22"
             style="fill:#ffffff;fill-opacity:1;fill-rule:nonzero;stroke:#000000;stroke-width:0.43099999;stroke-linecap:butt;stroke-linejoin:miter;stroke-miterlimit:10;stroke-dasharray:none;stroke-opacity:1"
             d="m 0,0 c 0.26,2.339 0.654,19.36 0.686,21.632 0.03,2.018 2.275,4.839 4.008,2.244 0.587,-0.879 0.453,-3.61 0.649,-5.209 C 5.556,16.934 5.666,5.242 6.174,1.77" /></g><g
           transform="translate(25.749,20.9951)"
           id="g24"><path
             id="path26"
             style="fill:#ffffff;fill-opacity:1;fill-rule:nonzero;stroke:#000000;stroke-width:0.43099999;stroke-linecap:butt;stroke-linejoin:miter;stroke-miterlimit:10;stroke-dasharray:none;stroke-opacity:1"
             d="m 0,0 c 0.26,2.34 0.654,19.36 0.686,21.632 0.03,2.018 2.276,4.84 4.009,2.244 0.587,-0.879 0.454,-3.61 0.651,-5.209 C 5.559,16.933 5.668,5.242 6.176,1.77" /></g><g
           transform="translate(30.2822,19.6426)"
           id="g28"><path
             id="path30"
             style="fill:#ffffff;fill-opacity:1;fill-rule:nonzero;stroke:#000000;stroke-width:0.37599999;stroke-linecap:butt;stroke-linejoin:miter;stroke-miterlimit:10;stroke-dasharray:none;stroke-opacity:1"
             d="m 0,0 c 0.228,2.042 0.571,16.904 0.6,18.887 0.025,1.762 1.987,4.226 3.501,1.96 C 4.612,20.079 4.496,17.695 4.667,16.298 4.853,14.785 4.95,4.577 5.393,1.545" /></g><g
           transform="translate(20.3237,23.8799)"
           id="g32"><path
             id="path34"
             style="fill:#ffffff;fill-opacity:1;fill-rule:nonzero;stroke:#000000;stroke-width:0.428;stroke-linecap:butt;stroke-linejoin:miter;stroke-miterlimit:10;stroke-dasharray:none;stroke-opacity:1"
             d="m 0,0 c 0.275,2.265 0.748,18.75 0.791,20.951 0.038,1.954 2.337,4.674 4.09,2.15 0.595,-0.855 0.447,-3.5 0.64,-5.05 C 5.729,16.371 5.332,3.097 5.833,-0.271" /></g><g
           transform="translate(35.2705,25.0205)"
           id="g36"><path
             id="path38"
             style="fill:#ffffff;fill-opacity:1;fill-rule:nonzero;stroke:#000000;stroke-width:0.47;stroke-linecap:butt;stroke-linejoin:miter;stroke-miterlimit:10;stroke-dasharray:none;stroke-opacity:1"
             d="m 0,0 c 1.063,-2.038 0.425,-8.229 0.425,-8.229 -0.453,-3.456 -1.752,-7.102 -3.49,-10.085 -0.783,-1.726 -0.625,-3.998 -0.625,-3.998 h -14.304 l 0.078,1.41 c 0.353,2.612 0.979,4.675 -0.105,7.186 -0.874,2.03 -5.067,8.229 -2.637,12.305" /></g><g
           transform="translate(17.8335,9.9707)"
           id="g40"><path
             id="path42"
             style="fill:#ffffff;fill-opacity:1;fill-rule:nonzero;stroke:#000000;stroke-width:0.47;stroke-linecap:butt;stroke-linejoin:miter;stroke-miterlimit:10;stroke-dasharray:none;stroke-opacity:1"
             d="m 0,0 c -0.382,2.255 -2.761,3.479 -4.282,4.959 -1.647,1.603 -1.621,3.634 -1.385,5.908 0.224,2.164 0.032,4.5 -0.088,6.791 -0.061,1.147 -0.712,2.437 -0.601,3.506 0.153,1.464 1.262,1.201 2.345,0.454 1.44,-0.994 2.19,-2.796 2.675,-4.415 0.34,-1.131 0.15,-4.304 0.917,-5.087 0.41,-0.42 1.808,-0.421 2.377,-0.703 C 2.789,11.001 3.46,10.447 4.034,9.756 5.395,8.119 5.557,6.371 5.669,4.291" /></g><g
           transform="translate(33.0703,18.4121)"
           id="g44"><path
             id="path46"
             style="fill:none;stroke:#000000;stroke-width:0.55400002;stroke-linecap:butt;stroke-linejoin:miter;stroke-miterlimit:10;stroke-dasharray:none;stroke-opacity:1"
             d="M 0,0 C -3.534,0.516 -7.723,-4.529 -6.94,-7.593" /></g></g></g></g></svg>