<?xml version="1.0" encoding="UTF-8" standalone="no"?>
<svg
   xmlns:dc="http://purl.org/dc/elements/1.1/"
   xmlns:cc="http://creativecommons.org/ns#"
   xmlns:rdf="http://www.w3.org/1999/02/22-rdf-syntax-ns#"
   xmlns:svg="http://www.w3.org/2000/svg"
   xmlns="http://www.w3.org/2000/svg"
   viewBox="0 0 66.666664 66.666664"
   height="66.666664"
   width="66.666664"
   xml:space="preserve"
   id="svg2"
   version="1.1"><metadata
     id="metadata8"><rdf:RDF><cc:Work
         rdf:about=""><dc:format>image/svg+xml</dc:format><dc:type
           rdf:resource="http://purl.org/dc/dcmitype/StillImage" /></cc:Work></rdf:RDF></metadata><defs
     id="defs6"><clipPath
       id="clipPath18"
       clipPathUnits="userSpaceOnUse"><path
         id="path16"
         d="M 0,50 H 50 V 0 H 0 Z" /></clipPath></defs><g
     transform="matrix(1.3333333,0,0,-1.3333333,0,66.666667)"
     id="g10"><g
       id="g12"><g
         clip-path="url(#clipPath18)"
         id="g14"><g
           transform="translate(18.0615,22.5049)"
           id="g20"><path
             id="path22"
             style="fill:#59abc3;fill-opacity:1;fill-rule:nonzero;stroke:#000000;stroke-width:0.46900001;stroke-linecap:butt;stroke-linejoin:miter;stroke-miterlimit:10;stroke-dasharray:none;stroke-opacity:1"
             d="m 0,0 c 0.563,1.049 0.417,3.192 0.296,4.383 -0.15,1.479 -3.895,14.006 -2.956,16.902 0.508,1.647 2.037,1.898 3.191,0.626 C 2.504,20.346 4.93,9.078 5.087,7.278 c 0.234,1.878 3.985,14.315 5.299,16.593 0.647,1.121 1.85,1.703 3.012,0.879 1.297,-0.921 1.27,-2.667 0.997,-4.095 C 13.768,17.388 12.563,14.277 12.054,11.034 11.818,9.541 11.477,8.112 11.095,6.652 10.748,5.326 10.616,3.895 10.251,2.583" /></g><g
           transform="translate(33.0742,29.5464)"
           id="g24"><path
             id="path26"
             style="fill:#59abc3;fill-opacity:1;fill-rule:nonzero;stroke:none"
             d="m 0,0 c 0.524,-0.77 0.657,-1.436 0.657,-2.345 0,-2.034 -0.914,-3.566 -1.772,-5.337 -0.84,-1.733 -2.489,-4.416 -4.39,-5.125 -0.758,-0.281 -2.078,-0.557 -2.82,-0.044 -0.866,0.599 -0.799,1.682 -0.511,2.583 0.299,0.935 0.898,1.828 1.437,2.639 0.587,0.881 1.02,1.873 1.412,2.892 0.46,1.2 0.712,2.479 1.289,3.623 0.364,0.721 1.439,2.093 2.362,1.996 0,0 1.737,-0.003 2.336,-0.882" /></g><g
           transform="translate(33.0742,29.5464)"
           id="g28"><path
             id="path30"
             style="fill:none;stroke:#000000;stroke-width:0.46900001;stroke-linecap:butt;stroke-linejoin:miter;stroke-miterlimit:10;stroke-dasharray:none;stroke-opacity:1"
             d="m 0,0 c 0.524,-0.77 0.657,-1.436 0.657,-2.345 0,-2.034 -0.914,-3.566 -1.772,-5.337 -0.84,-1.733 -2.489,-4.416 -4.39,-5.125 -0.758,-0.281 -2.078,-0.557 -2.82,-0.044 -0.866,0.599 -0.799,1.682 -0.511,2.583 0.299,0.935 0.898,1.828 1.437,2.639 0.587,0.881 1.02,1.873 1.412,2.892 0.46,1.2 0.712,2.479 1.289,3.623 0.364,0.721 1.439,2.093 2.362,1.996 0,0 1.737,-0.003 2.336,-0.882 z" /></g><g
           transform="translate(24.8696,11.9424)"
           id="g32"><path
             id="path34"
             style="fill:#59abc3;fill-opacity:1;fill-rule:nonzero;stroke:none"
             d="m 0,0 c -0.159,-0.616 0.088,3.021 -0.118,3.99 -0.332,1.57 -0.563,2.191 -1.273,3.498 1.37,0.893 2.849,0.813 4.234,1.869 1.341,1.022 2.49,2.588 2.322,4.375 -0.23,2.421 -2.26,0.667 -3.516,-0.029 -1.623,-0.899 -3.257,-1.151 -5.027,-1.523 -3.741,-0.785 -7.816,-1.527 -7.072,-6.432 0.353,-2.326 1.84,-4.282 2.755,-6.399 1.084,-2.508 0.458,-4.568 0.105,-7.175 L -7.669,-9.234 H 6.652 c 0,0 -0.157,2.269 0.625,3.99 0,0 4.617,7.903 3.991,11.973 0,0 0.078,1.487 -0.704,1.094 0,0 -8.745,-4.42 -10.172,-3.99 C 0.392,3.833 0.234,0.909 0,0" /></g><g
           transform="translate(24.8696,11.9424)"
           id="g36"><path
             id="path38"
             style="fill:none;stroke:#000000;stroke-width:0.46900001;stroke-linecap:butt;stroke-linejoin:miter;stroke-miterlimit:10;stroke-dasharray:none;stroke-opacity:1"
             d="m 0,0 c -0.159,-0.616 0.088,3.021 -0.118,3.99 -0.332,1.57 -0.563,2.191 -1.273,3.498 1.37,0.893 2.849,0.813 4.234,1.869 1.341,1.022 2.49,2.588 2.322,4.375 -0.23,2.421 -2.26,0.667 -3.516,-0.029 -1.623,-0.899 -3.257,-1.151 -5.027,-1.523 -3.741,-0.785 -7.816,-1.527 -7.072,-6.432 0.353,-2.326 1.84,-4.282 2.755,-6.399 1.084,-2.508 0.458,-4.568 0.105,-7.175 L -7.669,-9.234 H 6.652 c 0,0 -0.157,2.269 0.625,3.99 0,0 4.617,7.903 3.991,11.973 0,0 0.078,1.487 -0.704,1.094 0,0 -8.745,-4.42 -10.172,-3.99 C 0.392,3.833 0.234,0.909 0,0 Z" /></g><g
           transform="translate(32.4902,23.9404)"
           id="g40"><path
             id="path42"
             style="fill:#59abc3;fill-opacity:1;fill-rule:nonzero;stroke:none"
             d="m 0,0 c -0.675,-0.87 -0.922,-1.996 -1.422,-2.98 -0.425,-0.838 -0.883,-1.645 -1.463,-2.347 -0.532,-0.644 -1.123,-1.355 -1.461,-2.126 -0.325,-0.745 -0.479,-1.663 0.207,-2.251 0.589,-0.505 1.742,-0.386 2.413,-0.213 1.688,0.437 3.334,2.584 4.205,3.988 0.89,1.437 1.806,2.665 1.987,4.402 0.08,0.777 0.096,1.4 -0.354,2.062 C 3.827,0.956 2.835,1.85 2.29,1.435 2.29,1.435 1.342,1.729 0,0" /></g><g
           transform="translate(32.4902,23.9404)"
           id="g44"><path
             id="path46"
             style="fill:none;stroke:#000000;stroke-width:0.403;stroke-linecap:butt;stroke-linejoin:miter;stroke-miterlimit:10;stroke-dasharray:none;stroke-opacity:1"
             d="m 0,0 c -0.675,-0.87 -0.922,-1.996 -1.422,-2.98 -0.425,-0.838 -0.883,-1.645 -1.463,-2.347 -0.532,-0.644 -1.123,-1.355 -1.461,-2.126 -0.325,-0.745 -0.479,-1.663 0.207,-2.251 0.589,-0.505 1.742,-0.386 2.413,-0.213 1.688,0.437 3.334,2.584 4.205,3.988 0.89,1.437 1.806,2.665 1.987,4.402 0.08,0.777 0.096,1.4 -0.354,2.062 C 3.827,0.956 2.835,1.85 2.29,1.435 2.29,1.435 1.342,1.729 0,0 Z" /></g></g></g></g></svg>