<?xml version="1.0" encoding="UTF-8" standalone="no"?>
<svg
   xmlns:dc="http://purl.org/dc/elements/1.1/"
   xmlns:cc="http://creativecommons.org/ns#"
   xmlns:rdf="http://www.w3.org/1999/02/22-rdf-syntax-ns#"
   xmlns:svg="http://www.w3.org/2000/svg"
   xmlns="http://www.w3.org/2000/svg"
   viewBox="0 0 66.666664 66.666664"
   height="66.666664"
   width="66.666664"
   xml:space="preserve"
   id="svg2"
   version="1.1"><metadata
     id="metadata8"><rdf:RDF><cc:Work
         rdf:about=""><dc:format>image/svg+xml</dc:format><dc:type
           rdf:resource="http://purl.org/dc/dcmitype/StillImage" /></cc:Work></rdf:RDF></metadata><defs
     id="defs6"><clipPath
       id="clipPath18"
       clipPathUnits="userSpaceOnUse"><path
         id="path16"
         d="M 0,50 H 50 V 0 H 0 Z" /></clipPath></defs><g
     transform="matrix(1.3333333,0,0,-1.3333333,0,66.666667)"
     id="g10"><g
       id="g12"><g
         clip-path="url(#clipPath18)"
         id="g14"><g
           transform="translate(16.0557,2.9873)"
           id="g20"><path
             id="path22"
             style="fill:#ffffff;fill-opacity:1;fill-rule:nonzero;stroke:none"
             d="m 0,0 c -1.796,0.927 -0.968,5.449 -1.667,7.299 -0.978,2.59 -1.269,5.085 -1.67,7.816 -0.525,3.567 -1.274,13.222 2.642,15.277 1.298,0.681 2.798,0.235 3.894,-0.518 0.535,2.025 4.096,2.397 5.265,0.821 1.536,1.428 4.394,1.367 5.843,-0.117 4.277,2.723 5.3,-2.47 5.595,-5.459 0.312,-3.151 1.716,-7.551 0.474,-10.573 1.264,2.288 0.489,4.501 0.695,6.953 0.213,0.019 0.389,0.017 0.601,-0.003 C 23.866,17.398 23.937,13.555 20.76,9.883 18.792,7.605 16.104,5.682 15.019,2.771 14.176,0.515 14.991,-0.037 12.243,-0.046 9.958,-0.053 1.156,-0.597 0,0" /></g><g
           transform="translate(16.0557,2.9873)"
           id="g24"><path
             id="path26"
             style="fill:none;stroke:#000000;stroke-width:0.49000001;stroke-linecap:butt;stroke-linejoin:miter;stroke-miterlimit:10;stroke-dasharray:none;stroke-opacity:1"
             d="m 0,0 c -1.796,0.927 -0.968,5.449 -1.667,7.299 -0.978,2.59 -1.269,5.085 -1.67,7.816 -0.525,3.567 -1.274,13.222 2.642,15.277 1.298,0.681 2.798,0.235 3.894,-0.518 0.535,2.025 4.096,2.397 5.265,0.821 1.536,1.428 4.394,1.367 5.843,-0.117 4.277,2.723 5.3,-2.47 5.595,-5.459 0.312,-3.151 1.716,-7.551 0.474,-10.573 1.264,2.288 0.489,4.501 0.695,6.953 0.213,0.019 0.389,0.017 0.601,-0.003 C 23.866,17.398 23.937,13.555 20.76,9.883 18.792,7.605 16.104,5.682 15.019,2.771 14.176,0.515 14.991,-0.037 12.243,-0.046 9.958,-0.053 1.156,-0.597 0,0 Z" /></g></g></g></g></svg>