<?xml version="1.0" encoding="UTF-8" standalone="no"?>
<svg
   xmlns:dc="http://purl.org/dc/elements/1.1/"
   xmlns:cc="http://creativecommons.org/ns#"
   xmlns:rdf="http://www.w3.org/1999/02/22-rdf-syntax-ns#"
   xmlns:svg="http://www.w3.org/2000/svg"
   xmlns="http://www.w3.org/2000/svg"
   viewBox="0 0 66.666664 66.666664"
   height="66.666664"
   width="66.666664"
   xml:space="preserve"
   id="svg2"
   version="1.1"><metadata
     id="metadata8"><rdf:RDF><cc:Work
         rdf:about=""><dc:format>image/svg+xml</dc:format><dc:type
           rdf:resource="http://purl.org/dc/dcmitype/StillImage" /></cc:Work></rdf:RDF></metadata><defs
     id="defs6"><clipPath
       id="clipPath18"
       clipPathUnits="userSpaceOnUse"><path
         id="path16"
         d="M 0,50 H 50 V 0 H 0 Z" /></clipPath></defs><g
     transform="matrix(1.3333333,0,0,-1.3333333,0,66.666667)"
     id="g10"><g
       id="g12"><g
         clip-path="url(#clipPath18)"
         id="g14"><g
           transform="translate(30.4297,7.6914)"
           id="g20"><path
             id="path22"
             style="fill:#ffffff;fill-opacity:1;fill-rule:nonzero;stroke:none"
             d="m 0,0 c 1.009,0.988 2.13,1.575 2.717,2.942 0.563,1.311 0.634,2.648 0.634,4.084 0,2.782 0.408,5.325 0.408,8.089 0,3.019 0.615,5.483 1.695,8.254 0.94,2.41 2.399,5.548 2.227,8.169 -0.113,1.696 -1.952,1.898 -3.028,0.733 -1.049,-1.138 -1.607,-2.839 -2.14,-4.265 -1.184,-3.167 -1.999,-6.377 -2.942,-9.541 -0.709,-2.382 -1.857,-2.364 -4.158,-3.773 -1.253,-0.765 -5.045,-0.368 -6.231,-0.983 -1.361,-0.706 -1.159,-4.746 -1.64,-5.903 -0.534,-1.285 1.142,-2.818 0.387,-3.97 -0.456,-0.696 -1.206,-1.709 -1.328,-2.528 0,0 -0.245,-0.572 0.327,-2.042 l -0.164,-4.249 h 13.155 z" /></g><g
           transform="translate(30.4297,7.6914)"
           id="g24"><path
             id="path26"
             style="fill:none;stroke:#000000;stroke-width:0.49000001;stroke-linecap:butt;stroke-linejoin:miter;stroke-miterlimit:10;stroke-dasharray:none;stroke-opacity:1"
             d="m 0,0 c 1.009,0.988 2.13,1.575 2.717,2.942 0.563,1.311 0.634,2.648 0.634,4.084 0,2.782 0.408,5.325 0.408,8.089 0,3.019 0.615,5.483 1.695,8.254 0.94,2.41 2.399,5.548 2.227,8.169 -0.113,1.696 -1.952,1.898 -3.028,0.733 -1.049,-1.138 -1.607,-2.839 -2.14,-4.265 -1.184,-3.167 -1.999,-6.377 -2.942,-9.541 -0.709,-2.382 -1.857,-2.364 -4.158,-3.773 -1.253,-0.765 -5.045,-0.368 -6.231,-0.983 -1.361,-0.706 -1.159,-4.746 -1.64,-5.903 -0.534,-1.285 1.142,-2.818 0.387,-3.97 -0.456,-0.696 -1.206,-1.709 -1.328,-2.528 0,0 -0.245,-0.572 0.327,-2.042 l -0.164,-4.249 h 13.155 z" /></g><g
           transform="translate(21.2788,31.9165)"
           id="g28"><path
             id="path30"
             style="fill:#ffffff;fill-opacity:1;fill-rule:nonzero;stroke:none"
             d="m 0,0 c -2.868,-0.86 -1.804,-9.748 -1.024,-11.639 1.061,-2.573 2.638,-2.446 3.587,0.119 0.735,1.984 0.841,3.878 0.951,6.005 0.071,1.385 0.284,3.151 -0.45,4.371 0,0 -1.021,1.757 -3.064,1.144" /></g><g
           transform="translate(21.2788,31.9165)"
           id="g32"><path
             id="path34"
             style="fill:none;stroke:#000000;stroke-width:0.49000001;stroke-linecap:butt;stroke-linejoin:miter;stroke-miterlimit:10;stroke-dasharray:none;stroke-opacity:1"
             d="m 0,0 c -2.868,-0.86 -1.804,-9.748 -1.024,-11.639 1.061,-2.573 2.638,-2.446 3.587,0.119 0.735,1.984 0.841,3.878 0.951,6.005 0.071,1.385 0.284,3.151 -0.45,4.371 0,0 -1.021,1.757 -3.064,1.144 z" /></g><g
           transform="translate(27.4971,30.7212)"
           id="g36"><path
             id="path38"
             style="fill:#ffffff;fill-opacity:1;fill-rule:nonzero;stroke:none"
             d="m 0,0 c -3.045,-0.416 -3.381,-9.597 -2.892,-11.64 0.666,-2.778 2.286,-2.901 3.658,-0.449 1.06,1.894 1.469,3.797 1.919,5.938 0.293,1.393 0.79,3.149 0.24,4.504 0,0 -0.756,1.943 -2.925,1.647" /></g><g
           transform="translate(27.4971,30.7212)"
           id="g40"><path
             id="path42"
             style="fill:none;stroke:#000000;stroke-width:0.50300002;stroke-linecap:butt;stroke-linejoin:miter;stroke-miterlimit:10;stroke-dasharray:none;stroke-opacity:1"
             d="m 0,0 c -3.045,-0.416 -3.381,-9.597 -2.892,-11.64 0.666,-2.778 2.286,-2.901 3.658,-0.449 1.06,1.894 1.469,3.797 1.919,5.938 0.293,1.393 0.79,3.149 0.24,4.504 0,0 -0.756,1.943 -2.925,1.647 z" /></g><g
           transform="translate(13.8848,20.2744)"
           id="g44"><path
             id="path46"
             style="fill:#ffffff;fill-opacity:1;fill-rule:nonzero;stroke:#000000;stroke-width:0.49000001;stroke-linecap:butt;stroke-linejoin:miter;stroke-miterlimit:10;stroke-dasharray:none;stroke-opacity:1"
             d="m 0,0 c 0.013,4.219 0.123,8.44 0.123,12.745 0,4.005 -1.345,8.15 -0.518,12.011 0.344,1.606 2.323,4.054 3.953,1.963 1.049,-1.347 0.9,-4.743 0.976,-6.376 C 4.639,18.125 5.619,9.927 5.515,7.843 5.449,6.521 5.974,5.42 5.862,4.187 5.689,4.202 5.716,4.112 5.638,4.044" /></g><g
           transform="translate(16.7036,8.5088)"
           id="g48"><path
             id="path50"
             style="fill:#ffffff;fill-opacity:1;fill-rule:nonzero;stroke:#000000;stroke-width:0.49000001;stroke-linecap:butt;stroke-linejoin:miter;stroke-miterlimit:10;stroke-dasharray:none;stroke-opacity:1"
             d="m 0,0 c -0.074,1.002 -1.074,1.975 -1.626,2.792 -0.599,0.886 -0.959,1.769 -1.465,2.696 -0.998,1.83 -2.31,3.025 -1.106,5.081 1.009,1.727 2.28,3.278 3.366,4.995 1.394,2.201 2.752,2.449 5.243,2.451 1.046,0.002 2.025,-0.178 3.064,-0.122 1.088,0.059 1.883,0.42 2.91,0.644 2.718,0.59 1.47,-2.77 0.156,-3.827 C 8.632,13.171 6.824,13.279 4.78,12.378 1.957,11.135 5.573,9.049 6.746,8.241 8.867,6.783 8.674,2.866 7.108,1.104" /></g></g></g></g></svg>